<svg width="35" height="35" viewBox="0 0 35 35" fill="none" xmlns="http://www.w3.org/2000/svg">
<path d="M32.0359 7.77922L31.5121 7.94548L28.7228 8.19431L27.9349 9.45408L27.3632 9.2722L25.1433 7.26817L24.8212 6.22598L24.39 5.11461L22.9947 3.86154L21.3488 3.53906L21.3109 4.29336L22.9234 5.86892L23.7124 6.79952L22.8253 7.2637L22.1032 7.05058L21.0211 6.59867L21.0579 5.72497L19.6381 5.14028L19.1667 7.19452L17.7358 7.51923L17.8774 8.66519L19.7418 9.02448L20.0638 7.19341L21.6028 7.42104L22.3183 7.84059H23.4661L24.2518 9.41614L26.3346 11.5318L26.1819 12.3541L24.5025 12.1399L21.6006 13.6072L19.5111 16.1167L19.2392 17.2281H18.4892L17.0917 16.5831L15.7344 17.2281L16.072 18.6619L16.6627 17.9801L17.7013 17.9478L17.6289 19.2354L18.4892 19.4876L19.3484 20.4539L20.7514 20.0589L22.3539 20.3122L24.215 20.8132L25.1444 20.9226L26.7202 22.7135L29.7614 24.5044L27.7945 28.267L25.7183 29.2333L24.9305 31.3835L21.926 33.392L21.6062 34.5502C29.2867 32.6979 35.0002 25.7898 35.0002 17.5305C34.998 13.923 33.9059 10.5654 32.0359 7.77922Z" fill="#0D1D46" fill-opacity="0.05"/>
<path d="M19.5138 26.6408L18.239 24.2743L19.4091 21.833L18.239 21.4827L16.9251 20.1617L14.0144 19.5078L13.0482 17.4839V18.6855H12.6225L10.1141 15.2803V12.4831L8.27535 9.48962L5.35569 10.0107H3.38882L2.39925 9.36131L3.66184 8.35938L2.40259 8.65058C0.884814 11.2458 0 14.2572 0 17.4828C0 27.1596 7.83517 35.0077 17.5013 35.0077C18.2457 35.0077 18.9756 34.9419 19.6977 34.8548L19.5149 32.7316C19.5149 32.7316 20.3184 29.5785 20.3184 29.4714C20.3173 29.3632 19.5138 26.6408 19.5138 26.6408Z" fill="#0D1D46" fill-opacity="0.05"/>
<path d="M6.49874 5.64756L9.60788 5.21382L11.041 4.42773L12.6535 4.8927L15.23 4.74997L16.1126 3.36178L17.3997 3.57363L20.5256 3.28038L21.387 2.33039L22.6017 1.51865L24.32 1.77734L24.9463 1.68256C22.683 0.616605 20.1645 0 17.4955 0C12.0629 0 7.20526 2.47757 3.99805 6.36787H4.00696L6.49874 5.64756ZM18.2355 1.74166L20.023 0.757097L21.1708 1.42053L19.5092 2.68608L17.9223 2.84552L17.208 2.38168L18.2355 1.74166ZM12.941 1.88549L13.73 2.21442L14.763 1.88549L15.3258 2.86114L12.941 3.48777L11.7943 2.81653C11.7943 2.81653 12.9154 2.094 12.941 1.88549Z" fill="#0D1D46" fill-opacity="0.05"/>
</svg>
