<svg width="40" height="40" viewBox="0 0 40 40" fill="none" xmlns="http://www.w3.org/2000/svg">
<rect width="40" height="40.0078" rx="12" fill="#F3F6FF"/>
<path d="M29.9684 13.3255L29.6093 13.4393L27.6967 13.6097L27.1565 14.4724L26.7645 14.3479L25.2424 12.9755L25.0216 12.2619L24.7259 11.5008L23.7692 10.6427L22.6406 10.4219L22.6146 10.9384L23.7203 12.0173L24.2613 12.6546L23.653 12.9725L23.1579 12.8265L22.416 12.5171L22.4412 11.9188L21.4677 11.5184L21.1445 12.9251L20.1634 13.1475L20.2604 13.9322L21.5388 14.1782L21.7596 12.9243L22.8148 13.0802L23.3054 13.3675H24.0924L24.6311 14.4464L26.0592 15.8952L25.9545 16.4583L24.803 16.3116L22.8133 17.3164L21.3806 19.0349L21.1941 19.796H20.6799L19.7217 19.3543L18.791 19.796L19.0225 20.7779L19.4275 20.311L20.1397 20.2888L20.09 21.1706L20.6799 21.3433L21.269 22.005L22.231 21.7345L23.3298 21.908L24.6059 22.2511L25.2432 22.3259L26.3236 23.5523L28.4089 24.7787L27.0602 27.3553L25.6367 28.017L25.0965 29.4895L23.0364 30.8649L22.8171 31.658C28.0834 30.3896 32.0009 25.659 32.0009 20.003C31.9994 17.5327 31.2506 15.2335 29.9684 13.3255Z" fill="#0D1D46"/>
<path d="M21.3803 26.2778L20.5062 24.6571L21.3085 22.9852L20.5062 22.7453L19.6053 21.8406L17.6094 21.3928L16.947 20.0067V20.8296H16.6551L14.9351 18.4976V16.582L13.6743 14.5319L11.6723 14.8887H10.3237L9.64513 14.444L10.5109 13.7578L9.64742 13.9572C8.6067 15.7346 8 17.7969 8 20.0059C8 26.6331 13.3725 32.0078 20.0003 32.0078C20.5108 32.0078 21.0113 31.9627 21.5064 31.9031L21.3811 30.449C21.3811 30.449 21.932 28.2897 21.932 28.2163C21.9313 28.1422 21.3803 26.2778 21.3803 26.2778Z" fill="#0D1D46"/>
<path d="M12.4608 11.8702L14.5926 11.573L15.5753 11.0343L16.6809 11.3529L18.4476 11.2551L19.0527 10.3038L19.9353 10.449L22.0786 10.248L22.6693 9.59699L23.5021 9.04072L24.6804 9.21799L25.1098 9.15304C23.5579 8.42255 21.831 8 20.001 8C16.276 8 12.9452 9.69785 10.7461 12.3638H10.7522L12.4608 11.8702ZM20.5084 9.19354L21.734 8.51883L22.521 8.97348L21.3817 9.84074L20.2936 9.95001L19.8039 9.63214L20.5084 9.19354ZM16.8781 9.29211L17.4191 9.51752L18.1274 9.29211L18.5133 9.96071L16.8781 10.3901L16.0918 9.93014C16.0918 9.93014 16.8605 9.435 16.8781 9.29211Z" fill="#0D1D46"/>
</svg>
