<svg width="46" height="42" viewBox="0 0 46 42" fill="none" xmlns="http://www.w3.org/2000/svg">
<path d="M22.9167 9.16667V0H0V41.25H45.8333V9.16667H22.9167ZM9.16667 36.6667H4.58333V32.0833H9.16667V36.6667ZM9.16667 27.5H4.58333V22.9167H9.16667V27.5ZM9.16667 18.3333H4.58333V13.75H9.16667V18.3333ZM9.16667 9.16667H4.58333V4.58333H9.16667V9.16667ZM18.3333 36.6667H13.75V32.0833H18.3333V36.6667ZM18.3333 27.5H13.75V22.9167H18.3333V27.5ZM18.3333 18.3333H13.75V13.75H18.3333V18.3333ZM18.3333 9.16667H13.75V4.58333H18.3333V9.16667ZM41.25 36.6667H22.9167V32.0833H27.5V27.5H22.9167V22.9167H27.5V18.3333H22.9167V13.75H41.25V36.6667ZM36.6667 18.3333H32.0833V22.9167H36.6667V18.3333ZM36.6667 27.5H32.0833V32.0833H36.6667V27.5Z" fill="#0D1D46" fill-opacity="0.05"/>
</svg>
